<svg width="77" height="17" viewBox="0 0 77 17" fill="none" xmlns="http://www.w3.org/2000/svg">
<path d="M0.849432 0.727272H3.05682L8.24716 13.4048H8.42614L13.6165 0.727272H15.8239V16H14.0938V4.39631H13.9446L9.17188 16H7.50142L2.72869 4.39631H2.57955V16H0.849432V0.727272ZM24.096 16.2386C22.9923 16.2386 22.0402 15.995 21.2398 15.5078C20.4443 15.0156 19.8303 14.3295 19.3978 13.4496C18.9703 12.5646 18.7565 11.5355 18.7565 10.3622C18.7565 9.18892 18.9703 8.15483 19.3978 7.25994C19.8303 6.36009 20.4319 5.65909 21.2025 5.15696C21.9781 4.64986 22.8829 4.39631 23.917 4.39631C24.5136 4.39631 25.1027 4.49574 25.6844 4.6946C26.2661 4.89347 26.7955 5.21662 27.2728 5.66406C27.7501 6.10653 28.1304 6.69318 28.4138 7.42401C28.6972 8.15483 28.8389 9.05469 28.8389 10.1236V10.8693H20.0093V9.34801H27.0491C27.0491 8.7017 26.9198 8.125 26.6613 7.6179C26.4078 7.11079 26.0448 6.71058 25.5725 6.41726C25.1052 6.12393 24.5534 5.97727 23.917 5.97727C23.216 5.97727 22.6095 6.15128 22.0974 6.49929C21.5903 6.84233 21.2 7.28977 20.9266 7.84162C20.6531 8.39347 20.5164 8.98508 20.5164 9.61648V10.6307C20.5164 11.4957 20.6656 12.229 20.9639 12.8306C21.2671 13.4272 21.6872 13.8821 22.2242 14.1953C22.7611 14.5036 23.385 14.6577 24.096 14.6577C24.5583 14.6577 24.9759 14.593 25.3488 14.4638C25.7267 14.3295 26.0523 14.1307 26.3257 13.8672C26.5992 13.5987 26.8105 13.2656 26.9596 12.8679L28.6599 13.3452C28.4809 13.9219 28.1801 14.429 27.7575 14.8665C27.335 15.299 26.8129 15.6371 26.1915 15.8807C25.57 16.1193 24.8715 16.2386 24.096 16.2386ZM35.8414 16.2386C34.8868 16.2386 34.0441 15.9975 33.3133 15.5153C32.5825 15.0281 32.0107 14.342 31.5981 13.457C31.1855 12.5671 30.9791 11.5156 30.9791 10.3026C30.9791 9.09943 31.1855 8.0554 31.5981 7.17045C32.0107 6.28551 32.585 5.60192 33.3208 5.11967C34.0566 4.63743 34.9067 4.39631 35.8712 4.39631C36.6169 4.39631 37.2061 4.5206 37.6386 4.76918C38.0761 5.01278 38.4092 5.29119 38.6379 5.6044C38.8715 5.91264 39.053 6.16619 39.1823 6.36506H39.3314V0.727272H41.0914V16H39.3911V14.2401H39.1823C39.053 14.4489 38.8691 14.7124 38.6304 15.0305C38.3918 15.3437 38.0512 15.6246 37.6088 15.8732C37.1663 16.1168 36.5771 16.2386 35.8414 16.2386ZM36.08 14.6577C36.786 14.6577 37.3825 14.4737 37.8698 14.1058C38.357 13.733 38.7274 13.2184 38.9809 12.5621C39.2345 11.9009 39.3612 11.1378 39.3612 10.2727C39.3612 9.41761 39.2369 8.66939 38.9884 8.02805C38.7398 7.38175 38.3719 6.87962 37.8847 6.52166C37.3975 6.15874 36.7959 5.97727 36.08 5.97727C35.3343 5.97727 34.7128 6.16868 34.2156 6.55149C33.7235 6.92933 33.3531 7.44389 33.1045 8.09517C32.8609 8.74148 32.7391 9.46733 32.7391 10.2727C32.7391 11.0881 32.8634 11.8288 33.1119 12.495C33.3655 13.1562 33.7384 13.6832 34.2306 14.076C34.7277 14.4638 35.3442 14.6577 36.08 14.6577ZM44.559 16V4.54545H46.319V16H44.559ZM45.4539 2.63636C45.1109 2.63636 44.8151 2.51953 44.5665 2.28587C44.3229 2.0522 44.2011 1.77131 44.2011 1.44318C44.2011 1.11506 44.3229 0.834162 44.5665 0.600497C44.8151 0.366832 45.1109 0.25 45.4539 0.25C45.797 0.25 46.0903 0.366832 46.3339 0.600497C46.5825 0.834162 46.7068 1.11506 46.7068 1.44318C46.7068 1.77131 46.5825 2.0522 46.3339 2.28587C46.0903 2.51953 45.797 2.63636 45.4539 2.63636ZM56.7612 11.3168V4.54545H58.5211V16H56.7612V14.0611H56.6419C56.3734 14.6428 55.9558 15.1374 55.389 15.5451C54.8223 15.9478 54.1064 16.1491 53.2413 16.1491C52.5254 16.1491 51.889 15.9925 51.3322 15.6793C50.7754 15.3612 50.3379 14.8839 50.0197 14.2475C49.7015 13.6062 49.5424 12.7983 49.5424 11.8239V4.54545H51.3024V11.7045C51.3024 12.5398 51.536 13.206 52.0034 13.7031C52.4757 14.2003 53.0772 14.4489 53.8081 14.4489C54.2456 14.4489 54.6905 14.337 55.1429 14.1133C55.6003 13.8896 55.9831 13.5465 56.2914 13.0842C56.6046 12.6218 56.7612 12.0327 56.7612 11.3168ZM61.7446 16V4.54545H63.4449V6.33523H63.594C63.8327 5.72372 64.218 5.24893 64.7499 4.91087C65.2819 4.56783 65.9207 4.39631 66.6665 4.39631C67.4221 4.39631 68.051 4.56783 68.5532 4.91087C69.0603 5.24893 69.4555 5.72372 69.7389 6.33523H69.8582C70.1515 5.74361 70.5915 5.27379 71.1782 4.92578C71.7648 4.5728 72.4683 4.39631 73.2886 4.39631C74.3128 4.39631 75.1505 4.71697 75.8018 5.35831C76.453 5.99467 76.7787 6.98651 76.7787 8.33381V16H75.0187V8.33381C75.0187 7.48864 74.7876 6.88459 74.3252 6.52166C73.8628 6.15874 73.3184 5.97727 72.692 5.97727C71.8866 5.97727 71.2627 6.22088 70.8202 6.7081C70.3778 7.19034 70.1565 7.80185 70.1565 8.54261V16H68.3667V8.15483C68.3667 7.50355 68.1555 6.97905 67.7329 6.58132C67.3103 6.17862 66.7659 5.97727 66.0997 5.97727C65.6423 5.97727 65.2148 6.09908 64.817 6.34268C64.4243 6.58629 64.1061 6.92436 63.8625 7.35689C63.6238 7.78445 63.5045 8.27912 63.5045 8.84091V16H61.7446Z" fill="white"/>
</svg>
